<svg width="400" height="349" viewBox="0 0 400 349" fill="none" xmlns="http://www.w3.org/2000/svg">
    <path d="M306.73 1.51528C354.934 8.00366 413.118 65.0238 358.778 146.94C358.778 146.94 327.006 206.64 322.034 290.425C317.062 374.245 -9.75546 379.957 0.22396 228.044C2.6571 191.018 10.1681 141.544 85.9482 104.448C161.728 67.3512 132.636 67.2102 159.789 36.7077C180.7 13.2226 254.294 -5.57257 306.73 1.51528Z" fill="#B1E5FE"/>
    <path d="M341.921 88.6148C359.877 88.6148 374.433 74.0585 374.433 56.1024C374.433 38.1462 359.877 23.5898 341.921 23.5898C323.964 23.5898 309.408 38.1462 309.408 56.1024C309.408 74.0585 323.964 88.6148 341.921 88.6148Z" fill="url(#paint0_linear_2_1260)"/>
    <path d="M341.921 82.7614C356.644 82.7614 368.579 70.8259 368.579 56.1027C368.579 41.3794 356.644 29.4438 341.921 29.4438C327.197 29.4438 315.262 41.3794 315.262 56.1027C315.262 70.8259 327.197 82.7614 341.921 82.7614Z" fill="#0E1B47"/>
    <path d="M339.982 73.9809V69.7493C337.232 69.6788 334.481 68.8677 332.895 67.8098L334.058 63.6841C335.751 64.7067 338.219 65.6236 340.864 65.6236C343.615 65.6236 345.483 64.2835 345.483 62.1678C345.483 60.193 343.967 58.9236 340.723 57.7599C336.139 56.1025 333.141 53.9868 333.141 49.9315C333.141 46.1584 335.751 43.2668 340.194 42.491V38.189H343.791V42.2442C346.541 42.3147 348.41 42.9847 349.821 43.6899L348.657 47.71C347.599 47.2163 345.695 46.2289 342.698 46.2289C339.63 46.2289 338.537 47.8158 338.537 49.2968C338.537 51.0952 340.123 52.0826 343.826 53.5989C348.728 55.4325 350.914 57.7951 350.914 61.674C350.914 65.3766 348.34 68.6561 343.509 69.4672V73.9809H339.982Z" fill="white"/>
    <path d="M340.652 116.12H374.364C388.504 116.12 400 127.58 400 141.756V183.825H340.794L340.652 116.12Z" fill="#0E1B47"/>
    <path d="M282.365 245.358H319.074C333.391 245.358 344.957 233.757 344.957 219.475V142.919C344.957 139.534 345.627 136.149 347.002 133.046C349.612 127.122 355.465 119.329 368.759 116.12H282.365V245.358Z" fill="url(#paint1_linear_2_1260)"/>
    <path d="M213.285 35.8613H260.538C276.935 35.8613 290.229 49.1554 290.229 65.5527V218.171C290.229 221.45 290.899 224.659 292.239 227.657C295.025 233.898 301.584 242.537 316.994 245.394H213.426L213.285 35.8613Z" fill="#0E1B47"/>
    <path d="M256.904 35.8964C256.904 35.8964 240.506 36.4254 231.197 50.3542C227.706 55.5731 225.943 61.7089 225.943 67.9857V263.625C225.943 277.624 214.588 288.979 200.589 288.979H80.2363V60.2631C80.2363 46.7221 91.2031 35.7553 104.744 35.7906L256.904 35.8964Z" fill="url(#paint2_linear_2_1260)"/>
    <path d="M172.873 241.55V264.012C172.873 270.289 175.235 276.354 179.573 280.868C183.064 284.5 188.353 287.78 196.287 288.979H49.8755C44.6918 288.979 39.5787 287.674 35.065 285.1C31.1508 282.843 27.025 279.317 23.9219 273.78C21.3124 269.126 20.043 263.836 20.043 258.511V241.515H172.873V241.55Z" fill="url(#paint3_linear_2_1260)"/>
    <path d="M153.407 118.024C153.407 120.422 151.467 122.361 149.069 122.361H103.439C101.041 122.361 99.1016 120.422 99.1016 118.024C99.1016 115.626 101.041 113.686 103.439 113.686H149.069C151.467 113.686 153.407 115.626 153.407 118.024Z" fill="#0E1B47"/>
    <path opacity="0.4" d="M207.535 144.048C207.535 146.446 205.596 148.385 203.198 148.385H103.439C101.041 148.385 99.1016 146.446 99.1016 144.048C99.1016 141.65 101.041 139.71 103.439 139.71H203.198C205.596 139.71 207.535 141.65 207.535 144.048Z" fill="white"/>
    <path opacity="0.4" d="M207.535 170.072C207.535 172.47 205.596 174.409 203.198 174.409H103.439C101.041 174.409 99.1016 172.47 99.1016 170.072C99.1016 167.674 101.041 165.735 103.439 165.735H203.198C205.596 165.735 207.535 167.674 207.535 170.072Z" fill="white"/>
    <path opacity="0.4" d="M207.535 196.096C207.535 198.494 205.596 200.433 203.198 200.433H103.439C101.041 200.433 99.1016 198.494 99.1016 196.096C99.1016 193.698 101.041 191.759 103.439 191.759H203.198C205.596 191.759 207.535 193.698 207.535 196.096Z" fill="white"/>
    <path d="M102.768 99.405H136.868C138.807 99.405 140.394 97.8182 140.394 95.8787V65.4115C140.394 63.4721 138.807 61.8853 136.868 61.8853H102.768C100.829 61.8853 99.2422 63.4721 99.2422 65.4115V95.8787C99.2422 97.8182 100.829 99.405 102.768 99.405Z" fill="#0E1B47"/>
    <path d="M118.178 95.667V92.1054C115.851 92.0349 113.559 91.3649 112.219 90.4834L113.206 87.0276C114.652 87.8739 116.697 88.6496 118.954 88.6496C121.281 88.6496 122.833 87.5212 122.833 85.7581C122.833 84.1007 121.564 83.0428 118.813 82.0555C114.969 80.645 112.466 78.8819 112.466 75.4966C112.466 72.323 114.687 69.925 118.39 69.255V65.6582H121.387V69.0787C123.714 69.1492 125.266 69.7135 126.465 70.2777L125.478 73.6629C124.596 73.275 122.974 72.4287 120.47 72.4287C117.896 72.4287 116.979 73.7687 116.979 75.0029C116.979 76.5192 118.319 77.3655 121.422 78.5997C125.548 80.1513 127.382 82.126 127.382 85.4055C127.382 88.5439 125.231 91.2944 121.176 91.9291V95.7022H118.178V95.667Z" fill="white"/>
    <path d="M55.9754 231.536C78.9366 231.536 97.5504 212.922 97.5504 189.96C97.5504 166.999 78.9366 148.385 55.9754 148.385C33.0141 148.385 14.4004 166.999 14.4004 189.96C14.4004 212.922 33.0141 231.536 55.9754 231.536Z" fill="url(#paint4_linear_2_1260)"/>
    <path d="M55.9742 224.024C74.7872 224.024 90.0383 208.773 90.0383 189.96C90.0383 171.147 74.7872 155.896 55.9742 155.896C37.1612 155.896 21.9102 171.147 21.9102 189.96C21.9102 208.773 37.1612 224.024 55.9742 224.024Z" fill="#0E1B47"/>
    <path d="M50.6168 203.819L37.8517 191.512C36.5117 190.207 36.4764 188.056 37.7811 186.716C39.0858 185.376 41.2369 185.341 42.5769 186.646L50.7227 194.51L69.412 177.09C70.7873 175.82 72.9384 175.891 74.2078 177.266C75.4773 178.641 75.4068 180.792 74.0315 182.062L50.6168 203.819Z" fill="white"/>
    <path d="M371.154 254.915C376.373 254.915 380.64 250.648 380.64 245.429C380.64 240.21 376.373 235.944 371.154 235.944C365.935 235.944 361.668 240.21 361.668 245.429C361.668 250.648 365.899 254.915 371.154 254.915ZM371.154 240.14C374.045 240.14 376.408 242.502 376.408 245.394C376.408 248.286 374.045 250.648 371.154 250.648C368.262 250.648 365.9 248.286 365.9 245.394C365.864 242.502 368.227 240.14 371.154 240.14Z" fill="#0E1B47"/>
    <path d="M62.9219 13.117H73.1128V3.63135H77.3444V13.117H87.5353V17.3134H77.3444V26.7991H73.1128V17.3134H62.9219V13.117Z" fill="#0E1B47"/>
    <defs>
        <linearGradient id="paint0_linear_2_1260" x1="294.265" y1="49.7766" x2="333.15" y2="108.057" gradientUnits="userSpaceOnUse">
            <stop stop-color="#3D8AFC"/>
            <stop offset="1" stop-color="#1F76F8"/>
        </linearGradient>
        <linearGradient id="paint1_linear_2_1260" x1="262.245" y1="168.166" x2="345.944" y2="252.027" gradientUnits="userSpaceOnUse">
            <stop stop-color="#57B1E4"/>
            <stop offset="1" stop-color="#0052CC"/>
        </linearGradient>
        <linearGradient id="paint2_linear_2_1260" x1="39.0928" y1="137.754" x2="202.901" y2="309.068" gradientUnits="userSpaceOnUse">
            <stop stop-color="#57B1E4"/>
            <stop offset="1" stop-color="#0052CC"/>
        </linearGradient>
        <linearGradient id="paint3_linear_2_1260" x1="-21.002" y1="260.629" x2="-10.3009" y2="320.185" gradientUnits="userSpaceOnUse">
            <stop stop-color="#57B1E4"/>
            <stop offset="1" stop-color="#0052CC"/>
        </linearGradient>
        <linearGradient id="paint4_linear_2_1260" x1="-4.96416" y1="181.872" x2="44.7596" y2="256.397" gradientUnits="userSpaceOnUse">
            <stop stop-color="#3D8AFC"/>
            <stop offset="1" stop-color="#1F76F8"/>
        </linearGradient>
    </defs>
</svg>
